<?xml version="1.0" encoding="UTF-8" standalone="no"?>
<!-- Created with Inkscape (http://www.inkscape.org/) -->

<svg
   xmlns:dc="http://purl.org/dc/elements/1.1/"
   xmlns:cc="http://creativecommons.org/ns#"
   xmlns:rdf="http://www.w3.org/1999/02/22-rdf-syntax-ns#"
   xmlns:svg="http://www.w3.org/2000/svg"
   xmlns="http://www.w3.org/2000/svg"
   xmlns:sodipodi="http://sodipodi.sourceforge.net/DTD/sodipodi-0.dtd"
   xmlns:inkscape="http://www.inkscape.org/namespaces/inkscape"
   version="1.1"
   id="svg3713"
   xml:space="preserve"
   width="491.11386"
   height="551.0108"
   viewBox="0 0 491.11386 551.0108"
   sodipodi:docname="Definitieve-logo-Yoel-De-Coninck_boomentuinwerken.svg"
   inkscape:version="0.92.3 (2405546, 2018-03-11)"><metadata
     id="metadata3719"><rdf:RDF><cc:Work
         rdf:about=""><dc:format>image/svg+xml</dc:format><dc:type
           rdf:resource="http://purl.org/dc/dcmitype/StillImage" /><dc:title></dc:title></cc:Work></rdf:RDF></metadata><defs
     id="defs3717"><clipPath
       clipPathUnits="userSpaceOnUse"
       id="clipPath3729"><path
         d="M 0,492 H 495 V 0 H 0 Z"
         id="path3727"
         inkscape:connector-curvature="0" /></clipPath></defs><sodipodi:namedview
     pagecolor="#ffffff"
     bordercolor="#666666"
     borderopacity="1"
     objecttolerance="10"
     gridtolerance="10"
     guidetolerance="10"
     inkscape:pageopacity="0"
     inkscape:pageshadow="2"
     inkscape:window-width="2560"
     inkscape:window-height="1361"
     id="namedview3715"
     showgrid="true"
     inkscape:zoom="0.99"
     inkscape:cx="202.84719"
     inkscape:cy="285.87255"
     inkscape:window-x="1991"
     inkscape:window-y="-9"
     inkscape:window-maximized="1"
     inkscape:current-layer="g3721"
     fit-margin-top="0"
     fit-margin-left="0"
     fit-margin-right="0"
     fit-margin-bottom="0" /><g
     id="g3721"
     inkscape:groupmode="layer"
     inkscape:label="Definitieve-logo-Yoel-De-Coninck_boomentuinwerken"
     transform="matrix(1.3333333,0,0,-1.3333333,-80.847198,607.69278)"><g
       id="g3723"><g
         id="g3725"
         clip-path="url(#clipPath3729)"><g
           id="g3731"
           transform="translate(72.21,50.5215)"><path
             d="M 0,0 C 0,1.58 -1.286,2.816 -2.756,2.912 -4.166,2.988 -5.389,2.93 -6.818,2.93 v -5.756 h 0.94 3.122 C -1.204,-2.826 0,-1.547 0,0 M -4.947,11.613 H -6.818 V 7.27 c 0.42,0.023 1.013,0.064 1.78,0.119 1.132,0.127 2.094,0.97 2.094,2.179 0,1.102 -0.893,2.045 -2.003,2.045 M 0.662,6.479 C 1.241,6.187 2.039,5.695 2.487,5.27 3.935,3.807 4.649,2.055 4.649,0 4.649,-2.059 3.935,-3.818 2.487,-5.27 1.041,-6.746 -0.702,-7.48 -2.756,-7.48 h -8.818 v 23.73 h 4.976 1.651 c 1.835,0 3.404,-0.652 4.71,-1.973 C 1.023,13.006 1.648,11.494 1.648,9.762 1.648,8.625 1.1,7.256 0.662,6.479"
             style="fill:#231f20;fill-opacity:1;fill-rule:nonzero;stroke:none"
             id="path3733"
             inkscape:connector-curvature="0" /></g><g
           id="g3735"
           transform="translate(85.6992,60.0313)"><path
             d="m 0,0 c -1.414,-1.432 -2.121,-3.135 -2.121,-5.107 0,-1.993 0.707,-3.696 2.121,-5.11 1.402,-1.406 3.105,-2.103 5.107,-2.103 1.971,0 3.669,0.697 5.093,2.103 1.424,1.404 2.131,3.108 2.131,5.11 0,1.982 -0.707,3.683 -2.131,5.107 C 8.791,1.414 7.092,2.123 5.107,2.123 3.095,2.123 1.392,1.414 0,0 m 13.618,3.387 c 2.363,-2.364 3.545,-5.207 3.545,-8.526 0,-3.326 -1.182,-6.16 -3.545,-8.506 -2.355,-2.337 -5.193,-3.507 -8.511,-3.507 -3.327,0.006 -6.165,1.181 -8.511,3.507 -2.356,2.356 -3.532,5.188 -3.532,8.506 0,3.309 1.176,6.147 3.532,8.526 2.363,2.363 5.204,3.545 8.511,3.545 3.308,0 6.143,-1.182 8.511,-3.545"
             style="fill:#231f20;fill-opacity:1;fill-rule:nonzero;stroke:none"
             id="path3737"
             inkscape:connector-curvature="0" /></g><g
           id="g3739"
           transform="translate(111.6675,60.0313)"><path
             d="m 0,0 c -1.416,-1.432 -2.118,-3.135 -2.118,-5.107 0,-1.993 0.702,-3.696 2.118,-5.11 1.404,-1.406 3.107,-2.103 5.11,-2.103 1.973,0 3.668,0.697 5.092,2.103 1.424,1.404 2.136,3.108 2.136,5.11 0,1.982 -0.712,3.683 -2.136,5.107 C 8.788,1.414 7.09,2.123 5.11,2.123 3.098,2.123 1.395,1.414 0,0 m 13.616,3.387 c 2.365,-2.364 3.552,-5.207 3.552,-8.526 0,-3.326 -1.187,-6.16 -3.552,-8.506 -2.353,-2.337 -5.194,-3.507 -8.506,-3.507 -3.33,0.006 -6.165,1.181 -8.511,3.507 -2.353,2.356 -3.533,5.188 -3.533,8.506 0,3.309 1.18,6.147 3.533,8.526 2.368,2.363 5.203,3.545 8.511,3.545 3.305,0 6.143,-1.182 8.506,-3.545"
             style="fill:#231f20;fill-opacity:1;fill-rule:nonzero;stroke:none"
             id="path3741"
             inkscape:connector-curvature="0" /></g><g
           id="g3743"
           transform="translate(143.2202,51.3887)"><path
             d="M 0,0 11.618,15.945 V -8.348 H 6.845 V 1.486 L 0,-7.965 -6.86,1.486 v -9.834 h -4.768 v 24.293 z"
             style="fill:#231f20;fill-opacity:1;fill-rule:nonzero;stroke:none"
             id="path3745"
             inkscape:connector-curvature="0" /></g><path
           d="m 158.06,55.219 h 11.633 V 51.051 H 158.06 Z"
           style="fill:#231f20;fill-opacity:1;fill-rule:nonzero;stroke:none"
           id="path3747"
           inkscape:connector-curvature="0" /><g
           id="g3749"
           transform="translate(196.7856,66.832)"><path
             d="m 0,0 v -4.756 h -9.542 v -4.781 h 7.152 v -4.756 h -7.152 v -4.789 H 0 v -4.736 H -14.31 V 0 Z"
             style="fill:#231f20;fill-opacity:1;fill-rule:nonzero;stroke:none"
             id="path3751"
             inkscape:connector-curvature="0" /></g><g
           id="g3753"
           transform="translate(213.8623,53.6563)"><path
             d="M 0,0 V 13.176 H 4.783 V -11.1 L -9.524,2.533 v -13.176 h -4.769 v 24.26 z"
             style="fill:#231f20;fill-opacity:1;fill-rule:nonzero;stroke:none"
             id="path3755"
             inkscape:connector-curvature="0" /></g><g
           id="g3757"
           transform="translate(247.4482,66.7715)"><path
             d="M 0,0 V -4.723 H -5.831 V -23.73 h -4.783 v 19.007 h -5.844 V 0 Z"
             style="fill:#231f20;fill-opacity:1;fill-rule:nonzero;stroke:none"
             id="path3759"
             inkscape:connector-curvature="0" /></g><g
           id="g3761"
           transform="translate(264.6284,52.4199)"><path
             d="M 0,0 V 14.352 H 4.801 V -0.016 c 0,-2.648 -0.94,-4.908 -2.814,-6.785 -1.883,-1.865 -4.143,-2.801 -6.773,-2.801 -2.66,0 -4.924,0.936 -6.798,2.801 -1.874,1.877 -2.808,4.137 -2.808,6.785 v 14.368 h 4.801 V 0 c 0,-2.588 2.19,-4.768 4.795,-4.768 C -2.215,-4.768 0,-2.57 0,0"
             style="fill:#231f20;fill-opacity:1;fill-rule:nonzero;stroke:none"
             id="path3763"
             inkscape:connector-curvature="0" /></g><path
           d="m 273.098,66.771 h 4.771 v -23.73 h -4.771 z"
           style="fill:#231f20;fill-opacity:1;fill-rule:nonzero;stroke:none"
           id="path3765"
           inkscape:connector-curvature="0" /><g
           id="g3767"
           transform="translate(295.835,53.6563)"><path
             d="M 0,0 V 13.176 H 4.781 V -11.1 L -9.532,2.533 v -13.176 h -4.766 v 24.26 z"
             style="fill:#231f20;fill-opacity:1;fill-rule:nonzero;stroke:none"
             id="path3769"
             inkscape:connector-curvature="0" /></g><g
           id="g3771"
           transform="translate(308.5361,66.7715)"><path
             d="M 0,0 4.385,-11.229 8.79,0 13.176,-11.229 17.551,0 h 5.152 L 13.176,-24.26 8.731,-12.453 4.385,-24.26 -5.137,0 Z"
             style="fill:#231f20;fill-opacity:1;fill-rule:nonzero;stroke:none"
             id="path3773"
             inkscape:connector-curvature="0" /></g><g
           id="g3775"
           transform="translate(348.3301,66.832)"><path
             d="m 0,0 v -4.756 h -9.537 v -4.781 h 7.159 v -4.756 h -7.159 v -4.789 H 0 v -4.736 H -14.308 V 0 Z"
             style="fill:#231f20;fill-opacity:1;fill-rule:nonzero;stroke:none"
             id="path3777"
             inkscape:connector-curvature="0" /></g><g
           id="g3779"
           transform="translate(362.4502,58.8223)"><path
             d="m 0,0 c 0,0.863 -0.307,1.625 -0.939,2.287 -0.619,0.598 -1.8,0.94 -2.947,0.94 h -2.675 v -6.555 h 1.834 V -3.34 h 1.592 C -1.395,-3.34 0,-1.807 0,0 m -11.337,7.949 h 7.747 c 2.641,0 4.777,-0.996 6.21,-2.41 C 4.063,4.094 4.919,2.773 4.919,0.15 V -0.469 C 4.919,-2.066 4.42,-3.576 3.416,-4.988 2.586,-6.154 1.928,-6.654 0.578,-7.184 l 5.523,-8.597 H 0.267 l -6.818,10.496 v -10.496 h -4.766 z"
             style="fill:#231f20;fill-opacity:1;fill-rule:nonzero;stroke:none"
             id="path3781"
             inkscape:connector-curvature="0" /></g><g
           id="g3783"
           transform="translate(376.0703,66.7715)"><path
             d="M 0,0 V -10.496 L 6.082,0 h 5.507 L 4.563,-12.057 12.722,-23.73 H 6.917 L 0,-13.777 V -23.73 H -4.756 V 0 Z"
             style="fill:#231f20;fill-opacity:1;fill-rule:nonzero;stroke:none"
             id="path3785"
             inkscape:connector-curvature="0" /></g><g
           id="g3787"
           transform="translate(405.8872,66.832)"><path
             d="m 0,0 v -4.756 h -9.537 v -4.781 h 7.15 v -4.756 h -7.15 v -4.789 H 0 v -4.736 H -14.312 V 0 Z"
             style="fill:#231f20;fill-opacity:1;fill-rule:nonzero;stroke:none"
             id="path3789"
             inkscape:connector-curvature="0" /></g><g
           id="g3791"
           transform="translate(422.9653,53.6563)"><path
             d="M 0,0 V 13.176 H 4.779 V -11.1 L -9.523,2.533 v -13.176 h -4.77 v 24.26 z"
             style="fill:#231f20;fill-opacity:1;fill-rule:nonzero;stroke:none"
             id="path3793"
             inkscape:connector-curvature="0" /></g><g
           id="g3795"
           transform="translate(73.0674,84.6563)"><path
             d="m 0,0 h -3.112 v 27.924 h 3.03 c 8.375,0 13.928,-5.641 13.928,-13.959 C 13.846,5.562 8.388,0 0,0 m -0.054,37.18 v -0.028 h -12.378 v -46.47 h 12.378 c 6.748,0 12.411,2.267 16.99,6.808 4.153,4.135 6.229,9.598 6.229,16.401 0,6.796 -2.076,12.275 -6.229,16.457 -3.965,3.935 -9.688,6.832 -16.99,6.832"
             style="fill:#a0d523;fill-opacity:1;fill-rule:nonzero;stroke:none"
             id="path3797"
             inkscape:connector-curvature="0" /></g><g
           id="g3799"
           transform="translate(101.6587,75.2793)"><path
             d="M 0,0 H 28.04 V 9.287 H 9.352 v 9.379 h 14.013 v 9.316 H 9.352 v 9.37 H 28.04 v 9.324 H 0 Z"
             style="fill:#a0d523;fill-opacity:1;fill-rule:nonzero;stroke:none"
             id="path3801"
             inkscape:connector-curvature="0" /></g><g
           id="g3803"
           transform="translate(175.707,84.3984)"><path
             d="m 0,0 c -3.903,0 -7.233,1.377 -9.982,4.119 -2.768,2.77 -4.153,6.11 -4.153,10.012 0,3.867 1.385,7.207 4.153,10.012 2.729,2.771 6.062,4.154 9.982,4.154 3.866,0 7.201,-1.383 10.007,-4.154 l 6.664,6.664 c -3.844,3.701 -9.546,6.89 -16.73,6.89 l 0.027,0.114 c -6.457,0 -12.007,-2.315 -16.639,-6.95 -4.618,-4.648 -6.927,-10.218 -6.927,-16.703 0,-6.498 2.309,-12.054 6.927,-16.67 4.59,-4.558 10.14,-6.845 16.639,-6.867 7.255,0 12.914,3.084 16.73,6.867 L 10.034,4.15 C 7.27,1.381 3.921,0 0,0"
             style="fill:#a0d523;fill-opacity:1;fill-rule:nonzero;stroke:none"
             id="path3805"
             inkscape:connector-curvature="0" /></g><g
           id="g3807"
           transform="translate(226.1284,88.6074)"><path
             d="m 0,0 c -2.784,-2.752 -6.113,-4.129 -9.975,-4.129 -3.925,0 -7.26,1.377 -10.011,4.129 -2.766,2.771 -4.153,6.104 -4.153,10.014 0,3.861 1.387,7.197 4.153,10.007 2.732,2.766 6.069,4.153 10.011,4.153 3.884,0 7.211,-1.387 9.975,-4.153 C 2.793,17.227 4.185,13.898 4.185,10.014 4.185,6.088 2.793,2.748 0,0 m -9.975,33.602 c -6.481,0 -12.038,-2.315 -16.675,-6.95 -4.613,-4.648 -6.922,-10.218 -6.922,-16.703 0,-6.498 2.309,-12.054 6.922,-16.67 4.595,-4.558 10.154,-6.845 16.675,-6.867 6.499,0 12.057,2.289 16.672,6.867 4.63,4.59 6.949,10.155 6.949,16.67 0,6.5 -2.319,12.071 -6.949,16.703 -4.633,4.635 -10.193,6.95 -16.672,6.95"
             style="fill:#a0d523;fill-opacity:1;fill-rule:nonzero;stroke:none"
             id="path3809"
             inkscape:connector-curvature="0" /></g><g
           id="g3811"
           transform="translate(273.147,96.1348)"><path
             d="m 0,0 -28.011,26.682 v -47.537 h 9.347 V 4.963 L 9.374,-21.746 V 25.82 H 0 Z"
             style="fill:#a0d523;fill-opacity:1;fill-rule:nonzero;stroke:none"
             id="path3813"
             inkscape:connector-curvature="0" /></g><path
           d="m 289.675,75.338 h 9.349 v 46.498 h -9.349 z"
           style="fill:#a0d523;fill-opacity:1;fill-rule:nonzero;stroke:none"
           id="path3815"
           inkscape:connector-curvature="0" /><g
           id="g3817"
           transform="translate(334.2051,96.1348)"><path
             d="m 0,0 -28.008,26.682 v -47.537 h 9.349 V 4.963 L 9.379,-21.746 V 25.82 H 0 Z"
             style="fill:#a0d523;fill-opacity:1;fill-rule:nonzero;stroke:none"
             id="path3819"
             inkscape:connector-curvature="0" /></g><g
           id="g3821"
           transform="translate(372.5996,84.3984)"><path
             d="m 0,0 c -3.9,0 -7.228,1.377 -9.981,4.119 -2.769,2.77 -4.148,6.11 -4.148,10.012 0,3.867 1.379,7.207 4.148,10.012 2.734,2.771 6.056,4.154 9.981,4.154 3.872,0 7.204,-1.383 10.012,-4.154 l 6.665,6.664 c -3.842,3.701 -9.552,6.89 -16.731,6.89 l 0.03,0.114 c -6.462,0 -12.014,-2.315 -16.647,-6.95 -4.612,-4.648 -6.921,-10.218 -6.921,-16.703 0,-6.498 2.309,-12.054 6.921,-16.67 4.599,-4.558 10.146,-6.845 16.647,-6.867 7.253,0 12.914,3.084 16.73,6.867 L 10.042,4.15 C 7.273,1.381 3.926,0 0,0"
             style="fill:#a0d523;fill-opacity:1;fill-rule:nonzero;stroke:none"
             id="path3823"
             inkscape:connector-curvature="0" /></g><g
           id="g3825"
           transform="translate(412.9868,98.2109)"><path
             d="M 0,0 13.76,23.625 H 2.973 L -8.943,3.061 v 20.564 h -9.314 v -46.498 h 9.314 V -3.375 L 4.619,-22.873 h 11.365 z"
             style="fill:#a0d523;fill-opacity:1;fill-rule:nonzero;stroke:none"
             id="path3827"
             inkscape:connector-curvature="0" /></g><g
           id="g3829"
           transform="translate(72.21,322.105)"><path
             d="m 0,0 c 3.318,-3.17 8.867,-6.142 17.914,-8.245 0,0 -0.753,28.138 -17.914,25.814 v 39.585 c 8.457,0.541 18.297,3.68 17.367,15.573 0,0 -15.283,14.405 -28.931,-14.963 h -0.01 V -191.533 H 0 Z"
             style="fill:#a0d523;fill-opacity:1;fill-rule:nonzero;stroke:none"
             id="path3831"
             inkscape:connector-curvature="0" /></g><g
           id="g3833"
           transform="translate(147.1333,360.8901)"><path
             d="m 0,0 c 0,0 -18.398,10.152 -24.296,-21.714 0,0 30.97,2.22 24.296,21.714"
             style="fill:#a0d523;fill-opacity:1;fill-rule:nonzero;stroke:none"
             id="path3835"
             inkscape:connector-curvature="0" /></g><g
           id="g3837"
           transform="translate(179.4004,405.7676)"><path
             d="m 0,0 c 0,0 -18.399,10.153 -24.297,-21.714 0,0 30.971,2.22 24.297,21.714"
             style="fill:#a0d523;fill-opacity:1;fill-rule:nonzero;stroke:none"
             id="path3839"
             inkscape:connector-curvature="0" /></g><g
           id="g3841"
           transform="translate(179.4004,325.3096)"><path
             d="m 0,0 c 0,0 -18.399,10.152 -24.297,-21.717 0,0 30.971,2.22 24.297,21.717"
             style="fill:#a0d523;fill-opacity:1;fill-rule:nonzero;stroke:none"
             id="path3843"
             inkscape:connector-curvature="0" /></g><g
           id="g3845"
           transform="translate(152.8584,276.4023)"><path
             d="m 0,0 c 0,0 30.771,4.16 22.886,23.197 0,0 -19,8.978 -22.886,-23.197"
             style="fill:#a0d523;fill-opacity:1;fill-rule:nonzero;stroke:none"
             id="path3847"
             inkscape:connector-curvature="0" /></g><g
           id="g3849"
           transform="translate(134.1309,420.2573)"><path
             d="m 0,0 c 0,0 -20.995,0.855 -12.019,-30.287 0,0 26.71,15.836 12.019,30.287"
             style="fill:#a0d523;fill-opacity:1;fill-rule:nonzero;stroke:none"
             id="path3851"
             inkscape:connector-curvature="0" /></g><g
           id="g3853"
           transform="translate(159.8223,349.2407)"><path
             d="m 0,0 c 0,0 -21.002,-0.714 -9.732,-31.103 0,0 25.454,17.784 9.732,31.103"
             style="fill:#a0d523;fill-opacity:1;fill-rule:nonzero;stroke:none"
             id="path3855"
             inkscape:connector-curvature="0" /></g><g
           id="g3857"
           transform="translate(138.6323,324.8584)"><path
             d="m 0,0 c 0,0 -11.619,17.51 -31.59,-8.021 0,0 28.49,-12.352 31.59,8.021"
             style="fill:#a0d523;fill-opacity:1;fill-rule:nonzero;stroke:none"
             id="path3859"
             inkscape:connector-curvature="0" /></g><g
           id="g3861"
           transform="translate(125.5259,373.4082)"><path
             d="m 0,0 c 0,0 -15.42,14.276 -28.804,-15.242 0,0 30.598,-5.285 28.804,15.242"
             style="fill:#a0d523;fill-opacity:1;fill-rule:nonzero;stroke:none"
             id="path3863"
             inkscape:connector-curvature="0" /></g><g
           id="g3865"
           transform="translate(110.5229,307.2788)"><path
             d="m 0,0 c 0,0 -11.545,17.557 -31.619,-7.888 0,0 28.436,-12.471 31.619,7.888"
             style="fill:#a0d523;fill-opacity:1;fill-rule:nonzero;stroke:none"
             id="path3867"
             inkscape:connector-curvature="0" /></g><g
           id="g3869"
           transform="translate(84.7612,376.3091)"><path
             d="m 0,0 c 0,0 -20.226,-5.699 -2.037,-32.524 0,0 20.482,23.338 2.037,32.524"
             style="fill:#a0d523;fill-opacity:1;fill-rule:nonzero;stroke:none"
             id="path3871"
             inkscape:connector-curvature="0" /></g><g
           id="g3873"
           transform="translate(113.1655,401.0439)"><path
             d="m 0,0 c 0,0 -20.309,5.393 -18.313,-26.958 0,0 29.51,9.658 18.313,26.958"
             style="fill:#a0d523;fill-opacity:1;fill-rule:nonzero;stroke:none"
             id="path3875"
             inkscape:connector-curvature="0" /></g><g
           id="g3877"
           transform="translate(107.8188,274.9287)"><path
             d="M 0,0 C 0,0 29.511,9.658 18.314,26.958 18.314,26.958 -1.995,32.351 0,0"
             style="fill:#a0d523;fill-opacity:1;fill-rule:nonzero;stroke:none"
             id="path3879"
             inkscape:connector-curvature="0" /></g><g
           id="g3881"
           transform="translate(90.6323,442.8203)"><path
             d="m 0,0 c 0,0 -20.309,5.393 -18.314,-26.958 0,0 29.511,9.658 18.314,26.958"
             style="fill:#a0d523;fill-opacity:1;fill-rule:nonzero;stroke:none"
             id="path3883"
             inkscape:connector-curvature="0" /></g><g
           id="g3885"
           transform="translate(81.5957,408.4351)"><path
             d="M 0,0 C 0,0 29.871,-8.482 30.252,12.122 30.252,12.122 16.425,27.942 0,0"
             style="fill:#a0d523;fill-opacity:1;fill-rule:nonzero;stroke:none"
             id="path3887"
             inkscape:connector-curvature="0" /></g><g
           id="g3889"
           transform="translate(158.8804,435.1782)"><path
             d="m 0,0 c 0,0 -20.928,-1.903 -7.95,-31.602 0,0 24.404,19.198 7.95,31.602"
             style="fill:#a0d523;fill-opacity:1;fill-rule:nonzero;stroke:none"
             id="path3891"
             inkscape:connector-curvature="0" /></g><g
           id="g3893"
           transform="translate(124.9702,444.4136)"><path
             d="m 0,0 4.778,-0.004 c -1.423,-4.701 -1.034,-11.698 3.574,-22.13 0,0 14.231,11.286 13.541,22.116 l 27.743,-0.023 c -5.87,-8.184 -3.682,-23.443 -3.682,-23.443 19.49,8.188 20.379,17.762 18.642,23.432 l 14.289,-0.012 c -4.132,-13.234 17.651,-23.781 17.651,-23.781 2.481,12.493 0.761,19.657 -2.234,23.768 l 70.052,-0.056 c -1.122,-9.935 7.826,-22.137 7.826,-22.137 8.07,9.922 9.894,17.085 9.146,22.123 l 81.126,-0.065 c 15.944,0 28.928,-12.981 28.928,-28.925 v -270.508 h 11.562 v 270.508 c 0,22.329 -18.164,40.493 -40.49,40.493 H -5.09 v -0.008 c -5.761,0.175 -16.274,-2.731 -16.39,-26.251 0,0 17.879,4.563 21.48,14.903"
             style="fill:#a0d523;fill-opacity:1;fill-rule:nonzero;stroke:none"
             id="path3895"
             inkscape:connector-curvature="0" /></g><g
           id="g3897"
           transform="translate(115.8613,352.1602)"><path
             d="m 0,0 c 0,0 -20.144,5.986 -19.1,-26.406 0,0 29.783,8.787 19.1,26.406"
             style="fill:#a0d523;fill-opacity:1;fill-rule:nonzero;stroke:none"
             id="path3899"
             inkscape:connector-curvature="0" /></g><g
           id="g3901"
           transform="translate(144.335,312.502)"><path
             d="m 0,0 c 0,0 -20.694,-3.645 -5.283,-32.158 0,0 22.716,21.168 5.283,32.158"
             style="fill:#a0d523;fill-opacity:1;fill-rule:nonzero;stroke:none"
             id="path3903"
             inkscape:connector-curvature="0" /></g><g
           id="g3905"
           transform="translate(237.1709,275.1191)"><path
             d="M 0,0 C -16.518,-12.323 7.792,-31.642 7.792,-31.642 20.917,-2.01 0,0 0,0"
             style="fill:#a0d523;fill-opacity:1;fill-rule:nonzero;stroke:none"
             id="path3907"
             inkscape:connector-curvature="0" /></g><g
           id="g3909"
           transform="translate(225.0283,282.5601)"><path
             d="M 0,0 C -20.592,0.88 -13.947,-29.451 -13.947,-29.451 14.946,-14.771 0,0 0,0"
             style="fill:#a0d523;fill-opacity:1;fill-rule:nonzero;stroke:none"
             id="path3911"
             inkscape:connector-curvature="0" /></g><g
           id="g3913"
           transform="translate(235.3784,321.0215)"><path
             d="M 0,0 C -8.753,-18.658 21.794,-24.228 21.794,-24.228 19.392,8.093 0,0 0,0"
             style="fill:#a0d523;fill-opacity:1;fill-rule:nonzero;stroke:none"
             id="path3915"
             inkscape:connector-curvature="0" /></g><g
           id="g3917"
           transform="translate(268.1338,303.3135)"><path
             d="M 0,0 C 14.333,29.071 -6.487,31.938 -6.487,31.938 -23.495,20.305 0,0 0,0"
             style="fill:#a0d523;fill-opacity:1;fill-rule:nonzero;stroke:none"
             id="path3919"
             inkscape:connector-curvature="0" /></g><g
           id="g3921"
           transform="translate(250.7012,288.7817)"><path
             d="M 0,0 C -1.794,-20.527 28.804,-15.245 28.804,-15.245 15.42,14.276 0,0 0,0"
             style="fill:#a0d523;fill-opacity:1;fill-rule:nonzero;stroke:none"
             id="path3923"
             inkscape:connector-curvature="0" /></g><g
           id="g3925"
           transform="translate(249.292,274.8994)"><path
             d="M 0,0 C -0.964,32.398 -20.699,25.175 -20.699,25.175 -30.271,6.926 0,0 0,0"
             style="fill:#a0d523;fill-opacity:1;fill-rule:nonzero;stroke:none"
             id="path3927"
             inkscape:connector-curvature="0" /></g><g
           id="g3929"
           transform="translate(253.3115,269.3052)"><path
             d="M 0,0 C -6.564,-19.534 24.418,-21.585 24.418,-21.585 18.347,10.254 0,0 0,0"
             style="fill:#a0d523;fill-opacity:1;fill-rule:nonzero;stroke:none"
             id="path3931"
             inkscape:connector-curvature="0" /></g><g
           id="g3933"
           transform="translate(307.8486,304.3965)"><path
             d="M 0,0 C -16.518,-12.321 7.792,-31.639 7.792,-31.639 20.918,-2.007 0,0 0,0"
             style="fill:#a0d523;fill-opacity:1;fill-rule:nonzero;stroke:none"
             id="path3935"
             inkscape:connector-curvature="0" /></g><g
           id="g3937"
           transform="translate(295.3848,317.0317)"><path
             d="M 0,0 C -20.586,0.88 -13.942,-29.449 -13.942,-29.449 14.951,-14.772 0,0 0,0"
             style="fill:#a0d523;fill-opacity:1;fill-rule:nonzero;stroke:none"
             id="path3939"
             inkscape:connector-curvature="0" /></g><g
           id="g3941"
           transform="translate(316.6045,347.1406)"><path
             d="M 0,0 C -13.349,29.533 -28.784,15.274 -28.784,15.274 -30.603,-5.251 0,0 0,0"
             style="fill:#a0d523;fill-opacity:1;fill-rule:nonzero;stroke:none"
             id="path3943"
             inkscape:connector-curvature="0" /></g><g
           id="g3945"
           transform="translate(284.6172,315.2197)"><path
             d="M 0,0 C 25.506,19.996 7.979,31.597 7.979,31.597 -12.39,28.473 0,0 0,0"
             style="fill:#a0d523;fill-opacity:1;fill-rule:nonzero;stroke:none"
             id="path3947"
             inkscape:connector-curvature="0" /></g><g
           id="g3949"
           transform="translate(352.0728,312.8789)"><path
             d="M 0,0 C -13.383,29.521 -28.809,15.245 -28.809,15.245 -30.598,-5.283 0,0 0,0"
             style="fill:#a0d523;fill-opacity:1;fill-rule:nonzero;stroke:none"
             id="path3951"
             inkscape:connector-curvature="0" /></g><g
           id="g3953"
           transform="translate(307.127,342.4219)"><path
             d="M 0,0 C -15.786,-13.246 9.586,-31.148 9.586,-31.148 20.997,-0.812 0,0 0,0"
             style="fill:#a0d523;fill-opacity:1;fill-rule:nonzero;stroke:none"
             id="path3955"
             inkscape:connector-curvature="0" /></g><g
           id="g3957"
           transform="translate(352.1816,285.2148)"><path
             d="M 0,0 C -6.076,31.837 -24.418,21.583 -24.418,21.583 -30.984,2.052 0,0 0,0"
             style="fill:#a0d523;fill-opacity:1;fill-rule:nonzero;stroke:none"
             id="path3959"
             inkscape:connector-curvature="0" /></g><g
           id="g3961"
           transform="translate(346.7134,333.0405)"><path
             d="M 0,0 C -6.076,31.837 -24.418,21.583 -24.418,21.583 -30.984,2.052 0,0 0,0"
             style="fill:#a0d523;fill-opacity:1;fill-rule:nonzero;stroke:none"
             id="path3963"
             inkscape:connector-curvature="0" /></g><g
           id="g3965"
           transform="translate(355.3555,351.8364)"><path
             d="M 0,0 C -12.271,-16.558 16.572,-28.062 16.572,-28.062 20.611,4.1 0,0 0,0"
             style="fill:#a0d523;fill-opacity:1;fill-rule:nonzero;stroke:none"
             id="path3967"
             inkscape:connector-curvature="0" /></g><g
           id="g3969"
           transform="translate(334.9614,441.6797)"><path
             d="M 0,0 C -6.565,-19.534 24.418,-21.585 24.418,-21.585 18.342,10.254 0,0 0,0"
             style="fill:#a0d523;fill-opacity:1;fill-rule:nonzero;stroke:none"
             id="path3971"
             inkscape:connector-curvature="0" /></g><g
           id="g3973"
           transform="translate(370.8594,393.1929)"><path
             d="M 0,0 C 21.571,24.194 2.27,32.512 2.27,32.512 -17.225,25.837 0,0 0,0"
             style="fill:#a0d523;fill-opacity:1;fill-rule:nonzero;stroke:none"
             id="path3975"
             inkscape:connector-curvature="0" /></g><g
           id="g3977"
           transform="translate(286.4512,284.2334)"><path
             d="M 0,0 C -11.268,-17.252 18.204,-27.034 18.204,-27.034 20.33,5.308 0,0 0,0"
             style="fill:#a0d523;fill-opacity:1;fill-rule:nonzero;stroke:none"
             id="path3979"
             inkscape:connector-curvature="0" /></g><g
           id="g3981"
           transform="translate(209.022,367.2085)"><path
             d="M 0,0 C 20.56,25.054 0.937,32.573 0.937,32.573 -18.271,25.108 0,0 0,0"
             style="fill:#a0d523;fill-opacity:1;fill-rule:nonzero;stroke:none"
             id="path3983"
             inkscape:connector-curvature="0" /></g><g
           id="g3985"
           transform="translate(197.7573,392.5737)"><path
             d="M 0,0 C -18.251,9.572 -25.17,-20.698 -25.17,-20.698 7.223,-19.734 0,0 0,0"
             style="fill:#a0d523;fill-opacity:1;fill-rule:nonzero;stroke:none"
             id="path3987"
             inkscape:connector-curvature="0" /></g><g
           id="g3989"
           transform="translate(186.4258,396.7388)"><path
             d="M 0,0 C 29.056,14.36 14.273,29.298 14.273,29.298 -6.304,30.406 0,0 0,0"
             style="fill:#a0d523;fill-opacity:1;fill-rule:nonzero;stroke:none"
             id="path3991"
             inkscape:connector-curvature="0" /></g><g
           id="g3993"
           transform="translate(244.876,443.9146)"><path
             d="M 0,0 C -19.499,-6.672 -2.274,-32.512 -2.274,-32.512 19.297,-8.321 0,0 0,0"
             style="fill:#a0d523;fill-opacity:1;fill-rule:nonzero;stroke:none"
             id="path3995"
             inkscape:connector-curvature="0" /></g><g
           id="g3997"
           transform="translate(225.7749,419.4194)"><path
             d="M 0,0 C -16.582,-12.236 7.624,-31.686 7.624,-31.686 20.908,-2.121 0,0 0,0"
             style="fill:#a0d523;fill-opacity:1;fill-rule:nonzero;stroke:none"
             id="path3999"
             inkscape:connector-curvature="0" /></g><g
           id="g4001"
           transform="translate(224.6255,351.2554)"><path
             d="M 0,0 C 24.647,21.054 6.649,31.905 6.649,31.905 -13.569,27.926 0,0 0,0"
             style="fill:#a0d523;fill-opacity:1;fill-rule:nonzero;stroke:none"
             id="path4003"
             inkscape:connector-curvature="0" /></g><g
           id="g4005"
           transform="translate(217.7881,338.207)"><path
             d="M 0,0 C 2.65,32.307 -17.769,27.32 -17.769,27.32 -29.308,10.249 0,0 0,0"
             style="fill:#a0d523;fill-opacity:1;fill-rule:nonzero;stroke:none"
             id="path4007"
             inkscape:connector-curvature="0" /></g><g
           id="g4009"
           transform="translate(336.5879,408.5425)"><path
             d="M 0,0 C -8.731,-18.667 21.818,-24.206 21.818,-24.206 19.391,8.112 0,0 0,0"
             style="fill:#a0d523;fill-opacity:1;fill-rule:nonzero;stroke:none"
             id="path4011"
             inkscape:connector-curvature="0" /></g><g
           id="g4013"
           transform="translate(339.52,360.0459)"><path
             d="M 0,0 C -16.864,27.678 -30.44,11.643 -30.44,11.643 -29.733,-8.956 0,0 0,0"
             style="fill:#a0d523;fill-opacity:1;fill-rule:nonzero;stroke:none"
             id="path4015"
             inkscape:connector-curvature="0" /></g><g
           id="g4017"
           transform="translate(362.3857,385.2676)"><path
             d="M 0,0 C 0.707,-20.599 30.436,-11.643 30.436,-11.643 13.576,16.035 0,0 0,0"
             style="fill:#a0d523;fill-opacity:1;fill-rule:nonzero;stroke:none"
             id="path4019"
             inkscape:connector-curvature="0" /></g><g
           id="g4021"
           transform="translate(243.4521,390.2412)"><path
             d="M 0,0 C 31.203,8.736 19.441,26.149 19.441,26.149 -0.581,31.041 0,0 0,0"
             style="fill:#a0d523;fill-opacity:1;fill-rule:nonzero;stroke:none"
             id="path4023"
             inkscape:connector-curvature="0" /></g><g
           id="g4025"
           transform="translate(282.0215,442.7227)"><path
             d="M 0,0 C -19.173,7.553 -22.792,-23.29 -22.792,-23.29 9.31,-18.84 0,0 0,0"
             style="fill:#a0d523;fill-opacity:1;fill-rule:nonzero;stroke:none"
             id="path4027"
             inkscape:connector-curvature="0" /></g><g
           id="g4029"
           transform="translate(299.6069,418.2153)"><path
             d="M 0,0 C -19.726,-5.945 -3.48,-32.405 -3.48,-32.405 18.98,-9.031 0,0 0,0"
             style="fill:#a0d523;fill-opacity:1;fill-rule:nonzero;stroke:none"
             id="path4031"
             inkscape:connector-curvature="0" /></g><g
           id="g4033"
           transform="translate(272.2866,414.4741)"><path
             d="M 0,0 C -14.095,-15.032 13.225,-29.785 13.225,-29.785 20.943,1.693 0,0 0,0"
             style="fill:#a0d523;fill-opacity:1;fill-rule:nonzero;stroke:none"
             id="path4035"
             inkscape:connector-curvature="0" /></g><g
           id="g4037"
           transform="translate(341.6655,374.6528)"><path
             d="M 0,0 C -3.436,-20.316 27.494,-17.505 27.494,-17.505 16.518,12.994 0,0 0,0"
             style="fill:#a0d523;fill-opacity:1;fill-rule:nonzero;stroke:none"
             id="path4039"
             inkscape:connector-curvature="0" /></g><g
           id="g4041"
           transform="translate(313.7222,435.8013)"><path
             d="M 0,0 C -11.539,-17.072 17.773,-27.32 17.773,-27.32 20.414,4.983 0,0 0,0"
             style="fill:#a0d523;fill-opacity:1;fill-rule:nonzero;stroke:none"
             id="path4043"
             inkscape:connector-curvature="0" /></g><g
           id="g4045"
           transform="translate(261.4248,390.1597)"><path
             d="M 0,0 C -20.375,3.08 -17.023,-27.79 -17.023,-27.79 13.274,-16.287 0,0 0,0"
             style="fill:#a0d523;fill-opacity:1;fill-rule:nonzero;stroke:none"
             id="path4047"
             inkscape:connector-curvature="0" /></g><g
           id="g4049"
           transform="translate(325.3604,395.0947)"><path
             d="m 0,0 c -2.645,-1.898 -6.116,-3.982 -10.595,-6.293 1.537,6.106 1.706,14.066 1.004,15.469 -0.95,1.899 -4.114,0 -4.114,0 -1.79,-11.103 -6.521,-17.914 -10.288,-21.741 -8.074,-3.493 -18.051,-7.421 -30.43,-11.904 -0.07,-0.025 -0.129,-0.053 -0.198,-0.078 0.588,1.215 1.35,2.984 2.071,5.178 3.882,1.175 9.7,3.143 10.239,4.526 0,0 -1.349,2.546 -3.312,1.665 -1.444,-0.648 -2.986,-1.709 -5.765,-1.923 0.48,2.185 0.821,4.595 0.89,7.159 0,0 -2.215,2.088 -3.95,-0.176 0,0 0.455,-12.171 -10.63,-20.74 -31.637,-14.402 -46.665,-35.463 -50.096,-45.183 0,0 -11.596,37.166 -38.916,49.064 -27.321,11.898 -26.896,16.962 -29.007,23.711 0,0 -9.688,2.005 -5.908,-7.172 0.495,-1.199 0.999,-2.342 1.538,-3.447 -1.52,0.828 -3.214,1.748 -4.697,2.551 -3.797,2.057 -3.481,0.633 -3.955,-1.266 -0.401,-1.605 3.181,-0.639 12.234,-7.089 0.445,-0.569 0.924,-1.133 1.436,-1.695 -2.573,-0.357 -8.336,-1.384 -9.194,-3.533 0,0 0.633,-1.672 1.424,-1.83 0.702,-0.141 2.05,4.317 11.982,1.442 3.686,-2.962 8.687,-6.04 15.811,-9.602 8.143,-4.072 13.606,-8.386 16.889,-15.364 -2.717,2.369 -7.053,5.549 -12.615,7.612 0,0 -2.689,-1.424 -1.107,-3.797 0,0 14.881,-4.481 17.546,-22.46 0.334,-7.043 0.01,-15.631 -0.883,-26.321 -3.377,-40.501 -56.532,-105.471 -26.578,-171.285 h 75.939 c 0,0 -65.345,32.681 -32.62,120.455 15.652,41.984 29.787,67.175 47.101,85.427 16.173,11.864 32.3,5.282 32.3,5.282 3.54,1.118 1.973,4.75 1.973,4.75 -8.281,2.756 -16.127,2.787 -20.701,2.455 16.158,12.965 35.394,22.732 60.544,35.151 0,0 11.179,6.151 12.024,11.002 0,0 0.841,5.907 -7.386,0"
             style="fill:#549733;fill-opacity:1;fill-rule:nonzero;stroke:none"
             id="path4051"
             inkscape:connector-curvature="0" /></g><g
           id="g4053"
           transform="translate(240.8145,192.582)"><path
             d="m 0,0 c -5.151,-5.227 -7.73,-11.434 -7.73,-18.624 0,-7.261 2.579,-13.473 7.73,-18.624 5.117,-5.115 11.32,-7.671 18.618,-7.671 7.194,0 13.388,2.556 18.574,7.671 5.186,5.114 7.777,11.326 7.777,18.624 0,7.228 -2.591,13.435 -7.777,18.624 C 32.036,5.151 25.846,7.725 18.618,7.725 11.291,7.725 5.08,5.151 0,0 m 49.642,12.345 c 8.622,-8.627 12.933,-18.986 12.933,-31.077 0,-12.125 -4.311,-22.469 -12.933,-31.02 -8.588,-8.516 -18.931,-12.775 -31.024,-12.775 -12.123,0.037 -22.464,4.297 -31.013,12.775 -8.587,8.588 -12.881,18.928 -12.881,31.02 0,12.06 4.294,22.416 12.881,31.077 8.618,8.62 18.959,12.93 31.013,12.93 12.058,0 22.401,-4.31 31.024,-12.93"
             style="fill:#549733;fill-opacity:1;fill-rule:nonzero;stroke:none"
             id="path4055"
             inkscape:connector-curvature="0" /></g><g
           id="g4057"
           transform="translate(365.5996,217.376)"><path
             d="M 0,0 V -17.339 H -34.776 V -34.778 H -8.697 V -52.112 H -34.776 V -69.555 H 0 V -86.837 H -52.164 V 0 Z"
             style="fill:#549733;fill-opacity:1;fill-rule:nonzero;stroke:none"
             id="path4059"
             inkscape:connector-curvature="0" /></g><g
           id="g4061"
           transform="translate(393.1377,217.1602)"><path
             d="m 0,0 v -69.232 h 34.775 v -17.28 H -17.389 V 0 Z"
             style="fill:#549733;fill-opacity:1;fill-rule:nonzero;stroke:none"
             id="path4063"
             inkscape:connector-curvature="0" /></g></g></g></g></svg>